<svg width="1088" height="960" viewBox="0 0 1088 960" fill="none" xmlns="http://www.w3.org/2000/svg">
<path d="M546.21 707.22C546.23 707.333 546.333 707.44 546.52 707.54C548.213 708.447 549.58 709.41 550.62 710.43C550.945 710.748 551.316 711.018 551.72 711.23C560.38 715.76 568.95 718.82 577.29 721.69C582.53 723.49 588.23 724.8 594.05 724.83C597.457 724.85 600.263 724.903 602.47 724.99C602.563 724.993 602.655 725.016 602.739 725.057C602.822 725.098 602.896 725.157 602.956 725.228C603.015 725.3 603.059 725.384 603.084 725.474C603.109 725.564 603.114 725.658 603.1 725.75C598.88 753.64 598.2 778.19 597.55 810.25C596.95 839.957 596.863 872.833 597.29 908.88C597.292 908.992 597.336 909.1 597.413 909.183C597.491 909.266 597.596 909.318 597.71 909.33C603.497 909.81 609.197 909.817 614.81 909.35C614.99 909.337 615.158 909.257 615.28 909.125C615.403 908.993 615.471 908.82 615.47 908.64C615.55 851.2 615.11 800.73 619.25 747.5C619.843 739.847 621.257 732.907 623.49 726.68C625.083 722.233 627.113 718.693 629.58 716.06C644.73 699.86 660.74 683.58 668.46 662.18C670.17 657.45 671.01 652.29 671.26 647.37C671.263 647.27 671.295 647.172 671.352 647.089C671.408 647.006 671.487 646.941 671.58 646.901C671.672 646.861 671.774 646.849 671.873 646.864C671.972 646.88 672.065 646.924 672.14 646.99C693.567 665.403 708.56 678.213 717.12 685.42C749.98 713.06 782.08 741.45 812.29 767.44C816.523 771.08 819.873 773.46 822.34 774.58C830.273 778.167 838.863 778.513 848.11 775.62C873.87 767.56 894.63 746.76 906.15 722.94C911.18 712.52 914.22 700.88 913.91 689.48C913.67 680.42 910.6 673.98 904.1 668.28C886.633 652.973 868.227 636.953 848.88 620.22C794.813 573.48 764.76 547.403 758.72 541.99C751.12 535.177 743.05 528.16 734.51 520.94C730.943 517.92 727.85 515.117 725.23 512.53C724.749 512.052 724.414 511.447 724.265 510.784C724.116 510.122 724.16 509.43 724.39 508.79C726.54 502.87 728.13 498.34 726.16 492.16C725.607 490.407 723.603 487.463 720.15 483.33C711.677 473.177 705.517 465.8 701.67 461.2C699.463 458.56 697.673 456.303 696.3 454.43C691.77 448.26 687.73 441.62 682.68 438.01C678.64 435.117 673.753 433.483 668.02 433.11C667.788 433.095 667.572 432.988 667.419 432.814C667.265 432.64 667.186 432.412 667.2 432.18C667.267 430.773 667.333 429.227 667.4 427.54C667.62 421.78 664.88 416.06 660.89 412.35C652.06 404.13 642.6 394.2 635.7 387.99C631.793 384.477 628.167 380.92 624.82 377.32C618.92 370.99 613.12 366.65 605.25 366.85C602.423 366.917 600.727 366.877 600.16 366.73C600.011 366.688 599.876 366.604 599.774 366.489C599.671 366.374 599.604 366.232 599.58 366.08C599.513 365.687 599.403 364.507 599.25 362.54C598.76 356.45 595.15 351.58 591.02 347.98C579.97 338.34 563.65 324.84 548.95 311.74C542.03 305.57 537.79 301.57 529.54 302.12C526.467 302.327 524.67 302.383 524.15 302.29C523.979 302.262 523.818 302.191 523.683 302.085C523.548 301.978 523.444 301.838 523.38 301.68C521.973 298.287 519.823 295.343 516.93 292.85C512.603 289.11 509.777 286.757 508.45 285.79C502.517 281.457 489.26 271.71 468.68 256.55C465.753 254.397 463.127 253.073 460.8 252.58C452.74 250.86 444.83 251.12 438.23 257.07C437.845 257.417 437.342 257.605 436.823 257.596C436.303 257.587 435.806 257.381 435.43 257.02C426.22 248.14 416.3 240.03 406.97 231.68C401.083 226.413 394.803 220.86 388.13 215.02C352.27 183.627 321.22 156.353 294.98 133.2C293.16 131.593 291.67 130.16 290.51 128.9C287.67 125.8 284.13 121.52 280.62 120.15C277.693 119.01 269.467 116.16 255.94 111.6C246.947 108.567 238.723 105.707 231.27 103.02C218.483 98.4134 200.147 91.7201 176.26 82.9401C158.067 76.2534 139.317 69.0901 120.01 61.4501C118.337 60.7834 116.73 60.6701 115.19 61.1101C109.76 62.6601 117.87 77.5201 119.76 81.0701C126.827 94.3234 135.613 111.193 146.12 131.68C157.947 154.747 172.547 183.237 189.92 217.15C192.82 222.82 195.22 225.69 200.29 229.64C207.95 235.6 215.41 242.27 227.02 252.43C233.46 258.063 240.453 264.073 248 270.46C267.46 286.933 285.28 302.197 301.46 316.25C309.91 323.59 317.42 329.4 324.23 335.82C332.62 343.7 342.83 351.65 352.98 360.15C353.379 360.485 353.643 360.953 353.724 361.468C353.804 361.982 353.697 362.509 353.42 362.95C351.03 366.75 348.44 369.67 345.65 373.74C341.883 379.24 333.13 391.537 319.39 410.63C316.003 415.343 312.733 420.027 309.58 424.68C303.38 433.82 296.14 442.86 289.3 452.84C285.39 458.54 281.73 463.21 277.82 468.32C272.127 475.74 267.28 483.26 263.28 490.88C263.048 491.317 262.883 491.789 262.79 492.28C261.537 498.913 262.68 504.91 266.22 510.27C277.22 526.93 288.46 542.41 300.38 560.06C327.907 600.807 357.647 644.587 389.6 691.4C394.66 698.82 399.12 707.19 399.32 716.5C399.527 726.28 399.403 735.36 398.95 743.74C398.617 749.94 397.557 758.937 395.77 770.73C389.11 814.68 382.91 864.61 376.74 908.66C376.726 908.752 376.732 908.847 376.758 908.937C376.784 909.027 376.829 909.11 376.891 909.181C376.953 909.253 377.029 909.31 377.115 909.349C377.201 909.389 377.295 909.409 377.39 909.41H392.32C392.665 909.411 393 909.295 393.272 909.081C393.544 908.867 393.737 908.567 393.82 908.23C394.107 907.083 394.803 903.29 395.91 896.85C396.943 890.843 397.57 887.063 397.79 885.51C401.003 862.737 404.05 841.867 406.93 822.9C408.88 810.09 410.8 794.29 413.32 779.31C413.5 778.243 415.01 767.733 417.85 747.78C418.71 741.713 419.13 734.41 419.11 725.87C419.07 710.92 415.73 698.31 408.26 686.49C404.153 679.997 398.393 671.25 390.98 660.25C375.393 637.11 363.327 619.057 354.78 606.09C345.25 591.65 334.82 576.92 324.7 561.55C316.09 548.48 308.44 538.28 299.11 524.36C295.917 519.587 292.367 514.56 288.46 509.28C284.73 504.23 282.47 497.21 286.43 491.44C289.577 486.86 293.073 481.69 296.92 475.93C298.747 473.203 302.383 468.14 307.83 460.74C316.23 449.33 319.83 443.54 327.8 433.13C330.16 430.05 333.027 426.037 336.4 421.09C342.673 411.897 348.363 403.873 353.47 397.02C360.48 387.6 366.96 377.46 374.01 367.53C378.73 360.88 385.61 362.93 391.97 365.52C401.21 369.28 410.62 374.24 419.34 377.78C424.153 379.733 430.36 382.457 437.96 385.95C447.55 390.37 456.73 394.15 469.57 399.4C480.06 403.68 490.87 409.21 502.13 414.38C503.097 414.82 504.377 415.93 505.97 417.71C506.316 418.089 506.549 418.561 506.64 419.07C507.28 422.63 507.617 424.93 507.65 425.97C507.983 435.543 508.153 446.497 508.16 458.83C508.16 459.134 508.066 459.43 507.892 459.677C507.719 459.924 507.473 460.111 507.19 460.21C506.803 460.35 506.063 460.497 504.97 460.65C485.343 463.417 466.167 466.167 447.44 468.9C443.44 469.49 436.35 469.6 433.02 467.28C421.913 459.54 412.01 450.623 403.31 440.53C400.95 437.79 398.4 436.23 395.39 438.75C392.77 440.943 391.82 443.877 392.54 447.55C393.67 453.35 396.99 458.95 398.76 463.48C400.75 468.58 402 472.64 401.02 477.87C400.949 478.261 400.757 478.624 400.47 478.91C398.47 480.89 396.153 482.027 393.52 482.32C389.98 482.707 386.103 483.133 381.89 483.6C380.517 483.753 379.387 484.33 378.5 485.33C375.887 488.263 375.163 491.89 376.33 496.21C376.433 496.604 376.674 496.948 377.01 497.18C379.397 498.867 381.837 500.117 384.33 500.93C389.443 502.597 394.907 504.047 400.72 505.28C403.42 505.853 407.807 507.223 413.88 509.39C420.213 511.657 424.49 513.313 426.71 514.36C430.99 516.38 435.25 519.443 439.49 523.55C448.417 532.183 456.333 539.873 463.24 546.62C469.54 552.78 474.697 558.517 478.71 563.83C484.43 571.397 488.763 577.797 491.71 583.03C497.15 592.69 502.253 603.573 507.02 615.68C511.42 626.88 514.1 639.47 516.76 650.48C518.27 656.74 525.22 657.41 525.31 650.01C525.49 634.07 523.04 622.6 518.98 603.24C515.99 588.97 510.46 578.05 503.33 564.5C497.01 552.45 490.16 543.75 481.26 531.79C481.14 531.626 481.055 531.439 481.014 531.24C480.972 531.041 480.973 530.836 481.018 530.639C481.063 530.441 481.149 530.256 481.272 530.096C481.395 529.935 481.551 529.804 481.73 529.71C481.917 529.61 482.427 529.633 483.26 529.78C490.813 531.093 497.007 532.633 501.84 534.4C511.02 537.76 523.28 542.35 532.81 547.24C547.13 554.58 559.713 562.613 570.56 571.34C583.42 581.673 591.86 588.687 595.88 592.38C611.467 606.66 628.37 621.677 646.59 637.43C648.29 638.91 651.53 641.61 652 644.27C653.47 652.48 650.49 657.7 645.99 665.24C639.823 675.587 631.693 686.697 621.6 698.57C617.1 703.87 611.86 707.64 605.88 709.88C596.193 713.5 586.323 714.547 576.27 713.02C568.56 711.85 556.16 709.13 547.02 706.52C546.917 706.491 546.808 706.487 546.703 706.51C546.598 706.533 546.501 706.581 546.42 706.651C546.339 706.721 546.278 706.81 546.241 706.909C546.204 707.008 546.194 707.115 546.21 707.22Z" stroke="#9298A6" stroke-width="2"/>
<path d="M608.6 244.23C608.747 244.37 608.942 244.448 609.145 244.448C609.348 244.448 609.543 244.37 609.69 244.23C614.257 239.87 618.304 235.1 621.83 229.92C625.17 225.02 627.67 221.59 629.33 219.63C636.2 211.51 642.88 201.76 649.62 193.18C659.12 181.08 666.93 170.34 677.72 156.52C678.029 156.123 678.452 155.83 678.932 155.68C679.413 155.53 679.929 155.53 680.41 155.68L681.02 155.87C681.318 155.963 681.591 156.123 681.818 156.337C682.045 156.551 682.22 156.814 682.33 157.105C682.44 157.396 682.482 157.708 682.452 158.018C682.423 158.327 682.323 158.625 682.16 158.89C673.03 173.82 663.27 188.37 653.85 204.02C649.56 211.14 642.35 219.79 639.66 227.15C639.63 227.237 639.621 227.33 639.636 227.421C639.651 227.512 639.689 227.598 639.746 227.671C639.802 227.744 639.876 227.801 639.961 227.837C640.046 227.874 640.138 227.889 640.23 227.88C647.51 227.16 655.197 226.143 663.29 224.83C667.65 224.12 673.81 223.63 677.48 223.67C679.014 223.683 680.084 224.03 680.69 224.71C680.957 225.009 681.158 225.361 681.279 225.74C681.399 226.119 681.435 226.515 681.383 226.896C681.332 227.277 681.195 227.633 680.983 227.938C680.771 228.242 680.489 228.486 680.16 228.65C678.407 229.53 676.787 230.16 675.3 230.54C668.967 232.16 662.78 233.81 656.74 235.49C647.05 238.2 637.29 240.29 628.97 241.64C628.756 241.677 628.554 241.764 628.38 241.892C628.207 242.021 628.066 242.188 627.97 242.38C621.88 254.54 611 267.4 603.28 279.97C597.84 288.82 590.74 297.3 584.63 306.64C582.41 310.027 580.067 313.21 577.6 316.19C577.482 316.334 577.401 316.505 577.364 316.688C577.326 316.871 577.334 317.06 577.386 317.239C577.439 317.419 577.534 317.582 577.663 317.717C577.793 317.851 577.953 317.952 578.13 318.01C578.784 318.223 579.457 318.36 580.15 318.42C590.517 319.36 600.297 319.707 609.49 319.46C615.517 319.3 620.36 318.907 624.02 318.28C638.43 315.79 651.89 311.96 664.42 304.42C682.667 293.427 696.96 278.633 707.3 260.04C711.307 252.827 714.357 246.477 716.45 240.99C718.104 236.643 720.057 230.74 722.31 223.28C729.56 199.25 731.22 173.08 728.36 147.98C726.49 131.58 724.88 119.73 721.58 105.94C721.154 104.173 720.604 102.907 719.93 102.14C719.672 101.849 719.345 101.627 718.978 101.496C718.611 101.365 718.216 101.328 717.83 101.39C703.017 103.757 688.424 106.903 674.05 110.83C652.457 116.723 631.144 126.067 610.11 138.86C606.63 140.973 601.587 144.597 594.98 149.73C588.347 154.89 583.454 159.247 580.3 162.8C576.054 167.587 571.974 172.673 568.06 178.06C560.97 187.83 556.87 197.18 553.15 208.63C550.957 215.363 549.554 221.987 548.94 228.5C546.387 255.46 550.48 281.29 561.22 305.99C561.269 306.108 561.346 306.211 561.444 306.293C561.542 306.374 561.659 306.431 561.784 306.459C561.909 306.486 562.04 306.483 562.164 306.45C562.289 306.418 562.404 306.356 562.5 306.27C563.987 304.937 565.284 303.393 566.39 301.64C569.71 296.38 574.89 290.66 578.56 285.18C582.82 278.807 588.097 271.653 594.39 263.72C595.98 261.71 596.39 259.99 596.3 257.5C595.79 243.23 595.35 235.98 595.51 222.83C595.59 216.09 595.454 207.86 595.1 198.14C595.083 197.662 595.245 197.194 595.554 196.828C595.862 196.462 596.296 196.224 596.77 196.16C599.017 195.86 600.517 196.91 601.27 199.31C602.85 204.38 604.46 212.3 605.15 218.34C606.104 226.633 607.224 234.267 608.51 241.24C608.584 241.647 608.567 242.163 608.46 242.79C608.334 243.543 608.38 244.023 608.6 244.23Z" stroke="#B2C59E" stroke-width="2"/>
<path d="M366.83 180.34C371.4 185.52 378.2 190.69 381.7 193.93C388.78 200.5 395.18 205.5 401.8 212.01C403.92 214.09 407.593 217.343 412.82 221.77C412.92 221.853 413.038 221.91 413.166 221.937C413.293 221.963 413.424 221.958 413.549 221.921C413.673 221.885 413.787 221.818 413.88 221.727C413.972 221.636 414.041 221.524 414.08 221.4L414.88 218.83C415.036 218.32 415.353 217.874 415.783 217.557C416.214 217.24 416.735 217.069 417.27 217.07H430.71C430.944 217.07 431.176 217.122 431.387 217.222C431.598 217.322 431.784 217.469 431.93 217.65C434.703 221.097 436.76 223.273 438.1 224.18C443.44 227.81 448.31 226.24 454.17 224.95C454.58 224.86 455.011 224.935 455.37 225.16C456.4 225.78 457.3 227.38 458.37 228.25C464.43 233.12 471.55 241.41 477.68 247.04C480.047 249.213 483.78 252.907 488.88 258.12C490.327 259.6 491.877 260.77 493.53 261.63C493.588 261.662 493.654 261.679 493.721 261.678C493.787 261.677 493.853 261.658 493.911 261.624C493.969 261.59 494.018 261.542 494.053 261.483C494.088 261.425 494.107 261.358 494.11 261.29C494.22 257.5 495.05 250.8 492.82 248.43C486.38 241.61 479.49 235.08 472.15 228.84C470.957 227.82 467.67 224.58 462.29 219.12C462.087 218.914 461.931 218.666 461.834 218.395C461.738 218.123 461.702 217.835 461.73 217.55C461.937 215.363 462.113 213.43 462.26 211.75C463.55 197.24 446.84 189.98 436.41 198.99C435.737 199.577 434.513 200.787 432.74 202.62C432.452 202.921 432.096 203.151 431.702 203.292C431.309 203.432 430.887 203.48 430.47 203.43L421.47 202.35C421.33 202.333 421.201 202.265 421.109 202.159C421.016 202.054 420.967 201.919 420.97 201.78C420.983 200.613 421.21 199.397 421.65 198.13C425.49 187.06 430.38 178.98 437.52 165.77C438.913 163.19 441.073 159.977 444 156.13C447.593 151.41 449.953 148.343 451.08 146.93C457.14 139.357 464.027 132.61 471.74 126.69" stroke="#9298A6" stroke-width="2"/>
<path d="M471.74 126.69C472.854 126.183 473.98 125.787 475.12 125.5C485.007 122.987 495.05 121.543 505.25 121.17C506.19 121.137 506.717 121.39 506.83 121.93" stroke="#B2C59E" stroke-width="2"/>
<path d="M506.83 121.93L507.36 188.68C507.366 189.657 507.705 190.603 508.32 191.36C511.253 194.987 514.75 198.847 518.81 202.94C518.99 203.12 524.857 208.89 536.41 220.25C536.55 220.386 536.723 220.485 536.911 220.536C537.1 220.587 537.298 220.589 537.487 220.542C537.675 220.494 537.848 220.4 537.989 220.266C538.13 220.133 538.233 219.965 538.29 219.78L540.65 212.19C540.809 211.679 540.824 211.135 540.691 210.617C540.559 210.099 540.285 209.63 539.9 209.26L517.21 187.52C517.164 187.474 517.127 187.419 517.1 187.36C516.647 186.32 516.437 184.95 516.47 183.25C516.73 168.697 516.727 147.96 516.46 121.04" stroke="#9298A6" stroke-width="2"/>
<path d="M516.46 121.04C523.28 121.367 528.873 121.78 533.24 122.28C533.9 122.353 534.307 122.693 534.46 123.3" stroke="#B2C59E" stroke-width="2"/>
<path d="M534.46 123.3L534.42 167.72C534.42 168.394 534.556 169.06 534.821 169.679C535.086 170.297 535.473 170.856 535.96 171.32L548.11 182.97C548.294 183.145 548.514 183.277 548.755 183.357C548.996 183.436 549.252 183.461 549.503 183.43C549.755 183.398 549.997 183.311 550.211 183.174C550.424 183.038 550.605 182.855 550.74 182.64L553.7 177.9C554.032 177.368 554.171 176.737 554.095 176.113C554.018 175.489 553.731 174.91 553.28 174.47C550.367 171.63 547.953 169.387 546.04 167.74C543.64 165.68 543.43 163.56 543.53 160.5C543.877 150.093 543.877 138.157 543.53 124.69" stroke="#9298A6" stroke-width="2"/>
<path d="M543.53 124.69C544.244 124.263 545.05 124.37 545.95 125.01" stroke="#B2C59E" stroke-width="2"/>
<path d="M545.95 125.01C555.824 133.163 564.634 142.07 572.38 151.73C572.485 151.86 572.615 151.967 572.762 152.044C572.91 152.121 573.071 152.167 573.237 152.178C573.403 152.189 573.568 152.166 573.724 152.11C573.879 152.053 574.021 151.965 574.14 151.85L581.75 144.58C581.984 144.352 582.141 144.059 582.2 143.74C582.4 142.66 582.13 141.7 581.39 140.86C578.91 138.067 576.317 134.993 573.61 131.64" stroke="#9298A6" stroke-width="2"/>
<path d="M573.61 131.64C578.737 132.527 583.52 134.207 587.96 136.68C589.9 137.76 590.72 137.62 592.41 136.4C596.19 133.66 600.797 130.72 606.23 127.58C606.357 127.504 606.465 127.399 606.545 127.274C606.625 127.149 606.675 127.008 606.691 126.861C606.706 126.714 606.687 126.566 606.635 126.429C606.583 126.292 606.499 126.169 606.39 126.07C605.623 125.363 604.807 124.783 603.94 124.33C592.98 118.597 582.287 114.307 571.86 111.46C553.76 106.51 535.62 103.13 516.45 103.09C498.63 103.06 483.9 104.18 467.24 107.73C446.15 112.22 426.21 119.7 407.85 130.67C400.9 134.81 395.81 137.31 390.49 141.49C384.483 146.203 377.823 151.697 370.51 157.97C365.8 162.01 362.19 166.41 358.6 171.22C358.358 171.545 358.248 171.949 358.292 172.352C358.337 172.755 358.533 173.126 358.84 173.39L366.83 180.34" stroke="#B2C59E" stroke-width="2"/>
<path d="M573.61 131.64C571.297 131.113 568.857 130.23 566.29 128.99C565.665 128.697 565.015 128.463 564.35 128.29C560.08 127.22 556.07 125.93 551.47 125.55C549.73 125.41 547.89 125.23 545.95 125.01" stroke="#486148" stroke-width="2"/>
<path d="M543.53 124.69C540.797 123.337 537.773 122.873 534.46 123.3" stroke="#486148" stroke-width="2"/>
<path d="M516.46 121.04C512.687 120.4 509.477 120.697 506.83 121.93" stroke="#486148" stroke-width="2"/>
<path d="M471.74 126.69L471.62 126.14C471.605 126.067 471.573 125.998 471.529 125.937C471.485 125.877 471.428 125.827 471.363 125.79C471.298 125.753 471.225 125.731 471.151 125.724C471.076 125.717 471.001 125.726 470.93 125.75L436.01 137.7" stroke="#486148" stroke-width="2"/>
<path d="M436.01 137.7C427.484 140.8 420.434 144.353 414.86 148.36C405.96 154.76 397.36 160.53 389.27 167.52C386.23 170.147 381.727 174.963 375.76 181.97" stroke="#B2C59E" stroke-width="2"/>
<path d="M375.76 181.97L366.83 180.34" stroke="#486148" stroke-width="2"/>
<path d="M375.76 181.97C379.774 185.05 382.434 186.9 383.74 187.52C386.94 189.033 391.167 191.293 396.42 194.3C398.594 195.54 400.52 196.393 402.2 196.86C402.29 196.884 402.383 196.891 402.475 196.88C402.567 196.868 402.655 196.839 402.735 196.793C402.815 196.748 402.885 196.687 402.941 196.614C402.997 196.542 403.037 196.458 403.06 196.37C403.854 193.383 404.76 190.763 405.78 188.51C411.04 176.94 415.29 167.36 422.24 156.93C426.487 150.557 431.077 144.147 436.01 137.7" stroke="#9298A6" stroke-width="2"/>
<path d="M525.01 283.13V235.43C525.01 234.909 524.853 234.403 524.56 233.98C523.794 232.867 522.78 231.723 521.52 230.55C516.74 226.123 511.317 220.95 505.25 215.03C500.29 210.18 493.35 204.3 488.16 198.98C487.916 198.729 487.716 198.434 487.57 198.11C487.284 197.463 487.13 196.263 487.11 194.51C487.044 189.957 487.044 186.317 487.11 183.59C487.12 183.262 487.201 182.941 487.348 182.65C487.495 182.359 487.704 182.107 487.96 181.91C493.64 177.53 497.35 172.75 496.18 165.01C495.28 159.01 490.96 154.21 485.15 152.57C478.91 150.81 473.544 152.467 469.05 157.54C465.55 161.5 464.65 170.02 467.78 174.46C469.767 177.287 472.244 179.75 475.21 181.85C475.43 182.008 475.609 182.216 475.732 182.456C475.855 182.696 475.92 182.961 475.92 183.23V200.27C475.92 200.431 475.953 200.591 476.016 200.74C476.08 200.89 476.173 201.026 476.29 201.14L514.15 237.43C514.467 237.733 514.716 238.101 514.88 238.51C515.22 239.37 515.38 240.45 515.36 241.75C515.214 252.223 515.147 263.833 515.16 276.58C515.163 276.87 515.23 277.156 515.357 277.415C515.483 277.675 515.665 277.902 515.89 278.08L523.28 283.96C523.438 284.085 523.628 284.162 523.828 284.185C524.028 284.207 524.23 284.173 524.411 284.086C524.592 283.999 524.744 283.864 524.85 283.695C524.956 283.525 525.012 283.33 525.01 283.13Z" stroke="#9298A6" stroke-width="2"/>
<path d="M746.93 355.9L767.23 347C767.693 346.794 768.091 346.467 768.384 346.054C768.676 345.64 768.851 345.155 768.89 344.65C769.07 342.143 768.98 339.467 768.62 336.62C767.78 329.987 766.91 323.82 766.01 318.12C765.919 317.547 765.642 317.019 765.224 316.616C764.805 316.214 764.267 315.959 763.69 315.89L742.92 313.4C742.475 313.346 742.053 313.17 741.702 312.891C741.351 312.612 741.084 312.241 740.93 311.82L734.37 293.55C734.173 292.996 734.124 292.4 734.229 291.821C734.335 291.242 734.59 290.701 734.97 290.25C738.383 286.217 742.003 281.997 745.83 277.59C746.657 276.643 747.72 275.153 749.02 273.12C749.189 272.853 749.277 272.542 749.272 272.226C749.266 271.909 749.168 271.601 748.99 271.34C743.07 262.653 736.807 254.833 730.2 247.88C730.076 247.75 729.922 247.651 729.752 247.591C729.582 247.532 729.4 247.513 729.221 247.538C729.043 247.562 728.872 247.629 728.724 247.732C728.576 247.835 728.455 247.971 728.37 248.13C725.457 253.463 722.55 259.053 719.65 264.9C715.67 272.92 709.5 280.62 703.15 287.5C702.873 287.803 702.7 288.188 702.659 288.597C702.617 289.006 702.709 289.417 702.92 289.77C709.56 300.79 713.73 312.82 716.93 324.82C723.06 347.76 720.96 372.88 714.48 395.76C712.707 402.027 710.41 407.977 707.59 413.61C704.137 420.53 700.16 427.577 695.66 434.75C695.504 434.998 695.433 435.29 695.457 435.582C695.48 435.874 695.597 436.15 695.79 436.37C701.42 442.84 706.84 448.79 712.21 456.01C718.6 464.59 722.59 469.85 726.03 473.69C726.141 473.813 726.277 473.911 726.429 473.977C726.581 474.042 726.746 474.073 726.912 474.069C727.077 474.064 727.24 474.023 727.388 473.949C727.536 473.875 727.667 473.77 727.77 473.64L736.66 462.45C736.976 462.057 737.154 461.571 737.167 461.067C737.179 460.563 737.026 460.069 736.73 459.66L724.42 442.61C724.189 442.287 724.047 441.91 724.009 441.515C723.97 441.12 724.036 440.721 724.2 440.36C727.027 434.22 729.93 428.237 732.91 422.41C733.637 420.983 734.52 420.267 735.56 420.26C740.827 420.24 746.9 420.097 753.78 419.83C755.553 419.763 756.867 419.333 757.72 418.54C757.931 418.343 758.095 418.1 758.2 417.83C761.053 410.777 763.343 403.44 765.07 395.82C765.35 394.58 765.503 393.25 765.53 391.83C765.539 391.321 765.416 390.818 765.172 390.371C764.928 389.924 764.573 389.548 764.14 389.28L746.82 378.49C746.725 378.432 746.647 378.351 746.593 378.255C746.538 378.158 746.51 378.05 746.51 377.94V356.55C746.51 356.413 746.549 356.278 746.624 356.163C746.698 356.047 746.805 355.956 746.93 355.9Z" stroke="#DAB5A1" stroke-width="2"/>
<path d="M258.02 296.3L256.87 300C256.698 300.55 256.679 301.137 256.815 301.699C256.95 302.26 257.235 302.776 257.64 303.19C263.22 308.91 270.09 314.63 275.11 318.47C275.429 318.711 275.663 319.047 275.78 319.43C276.187 320.743 276.264 321.947 276.01 323.04C274.397 330.013 273.314 336.09 272.76 341.27C272.74 341.465 272.662 341.65 272.535 341.802C272.409 341.953 272.24 342.064 272.05 342.12L249.39 348.92C249.132 348.997 248.906 349.158 248.749 349.377C248.592 349.596 248.511 349.861 248.52 350.13C248.66 354.99 248.97 363.113 249.45 374.5C249.537 376.527 249.747 378.077 250.08 379.15C250.14 379.334 250.24 379.503 250.373 379.643C250.506 379.783 250.669 379.891 250.85 379.96C258.12 382.73 268.89 384.42 272.96 385.5C273.198 385.565 273.417 385.686 273.598 385.851C273.779 386.016 273.917 386.222 274 386.45L280.84 405.51C281.045 406.079 281.078 406.695 280.933 407.282C280.789 407.869 280.475 408.401 280.03 408.81C274.98 413.43 269.47 418.8 266.47 424.4C266.263 424.782 266.193 425.227 266.27 425.66C266.437 426.607 266.797 427.6 267.35 428.64C270.417 434.447 273.894 440.37 277.78 446.41C277.817 446.467 277.867 446.515 277.926 446.549C277.984 446.584 278.05 446.604 278.118 446.609C278.186 446.614 278.254 446.603 278.317 446.577C278.379 446.551 278.435 446.511 278.48 446.46C284.747 439.14 290.127 432.03 294.62 425.13C296.174 422.743 298.774 419.317 302.42 414.85C304.687 412.07 307.21 408.573 309.99 404.36C310.82 403.1 311.85 402.13 311.05 400.49C300.57 378.997 297.137 356.427 300.75 332.78C300.977 331.3 300.507 330.047 299.34 329.02C293.86 324.17 287.92 319.8 283.09 315.5C276.317 309.473 268.597 302.883 259.93 295.73C259.778 295.605 259.598 295.519 259.405 295.479C259.212 295.44 259.012 295.449 258.823 295.506C258.634 295.562 258.462 295.664 258.322 295.802C258.182 295.941 258.079 296.112 258.02 296.3Z" stroke="#DAB5A1" stroke-width="2"/>
<path d="M693.63 319.95L678.54 319.99C678.325 319.99 678.119 319.906 677.967 319.756C677.815 319.606 677.73 319.402 677.73 319.19V311.78C677.731 311.681 677.706 311.584 677.657 311.498C677.608 311.413 677.537 311.341 677.452 311.291C677.367 311.242 677.27 311.215 677.171 311.215C677.072 311.215 676.975 311.241 676.89 311.29C672.503 313.77 667.907 316.273 663.1 318.8C658.7 321.113 653.883 323.177 648.65 324.99C640.003 327.977 631.68 329.717 623.68 330.21C623.346 330.232 623.025 330.35 622.756 330.551C622.488 330.752 622.284 331.026 622.168 331.34C622.053 331.655 622.031 331.996 622.106 332.323C622.181 332.649 622.349 332.947 622.59 333.18L624.78 335.28C626.237 336.679 628.156 337.504 630.18 337.6C639.16 338.02 647.743 337.857 655.93 337.11C655.989 337.104 656.048 337.111 656.104 337.13C656.16 337.15 656.211 337.181 656.254 337.222C656.297 337.263 656.33 337.312 656.352 337.367C656.373 337.422 656.383 337.481 656.38 337.54C656.247 340.007 655.817 342.533 655.09 345.12C652.35 354.95 648.61 367.53 642.74 377.69C642.495 378.116 642.399 378.612 642.468 379.098C642.537 379.584 642.766 380.032 643.12 380.37L654.78 391.55C654.865 391.63 654.966 391.69 655.078 391.724C655.189 391.758 655.307 391.767 655.422 391.748C655.537 391.73 655.646 391.685 655.741 391.618C655.836 391.551 655.914 391.462 655.97 391.36C658.89 386.02 661.847 379.973 664.84 373.22C669.59 362.49 672.93 349.78 675.24 338.28C675.259 338.185 675.311 338.1 675.387 338.042C675.462 337.983 675.556 337.954 675.65 337.96C682.563 338.36 689.5 338.273 696.46 337.7" stroke="#9298A6" stroke-width="2"/>
<path d="M696.46 337.7C695.087 363.307 687.61 386.78 674.03 408.12C673.775 408.524 673.635 408.99 673.626 409.468C673.617 409.946 673.74 410.417 673.98 410.83C676.307 414.797 678.627 419.37 680.94 424.55C681.52 425.843 682.33 426.823 683.37 427.49C683.645 427.665 683.975 427.732 684.296 427.678C684.617 427.625 684.907 427.455 685.11 427.2C693.53 416.6 699.24 403.84 703.47 391.45C708.097 377.883 709.894 363.7 708.86 348.9C708.48 343.43 708.12 337.37 706.91 332.09C704.637 322.237 701.8 313.337 698.4 305.39C697.6 303.54 695.93 299.08 693.12 300.07C692.938 300.134 692.781 300.256 692.673 300.416C692.565 300.576 692.512 300.767 692.52 300.96L693.63 319.95" stroke="#B2C59E" stroke-width="2"/>
<path d="M696.46 337.7C697.273 335.734 697.53 333.517 697.23 331.05C697.163 330.506 697.167 329.958 697.24 329.42C697.533 327.294 697.697 325.14 697.73 322.96C697.78 320.25 696.01 319.57 693.63 319.95" stroke="#486148" stroke-width="2"/>
<path d="M318.06 344.58C317.993 344.539 317.915 344.516 317.835 344.515C317.756 344.514 317.678 344.535 317.609 344.575C317.54 344.615 317.483 344.673 317.445 344.742C317.407 344.812 317.388 344.891 317.39 344.97C317.56 349.04 317.66 354.81 318.86 360.47C320.674 368.964 322.397 376.137 324.03 381.99C324.072 382.143 324.157 382.28 324.273 382.387C324.39 382.494 324.535 382.566 324.69 382.594C324.846 382.622 325.007 382.606 325.154 382.547C325.3 382.488 325.428 382.388 325.52 382.26L339.08 363.68C339.227 363.474 339.293 363.221 339.263 362.971C339.233 362.721 339.111 362.493 338.92 362.33C334.547 358.557 329.94 354.424 325.1 349.93C323.047 348.017 320.7 346.234 318.06 344.58Z" stroke="#B2C59E" stroke-width="2"/>
<path d="M481.35 716.32C481.216 716.325 481.087 716.374 480.983 716.46C480.88 716.546 480.808 716.664 480.778 716.795C480.749 716.926 480.763 717.064 480.819 717.186C480.876 717.308 480.971 717.408 481.09 717.47C487.364 720.67 492.487 723.513 496.46 726C502.42 729.72 506.08 733.31 506.73 740.03C507.45 747.497 508.307 757.403 509.3 769.75C509.52 772.517 509.46 778.77 509.12 788.51C509.116 788.596 509.129 788.681 509.159 788.762C509.189 788.842 509.235 788.916 509.293 788.979C509.352 789.041 509.423 789.091 509.501 789.126C509.58 789.16 509.664 789.179 509.75 789.18H509.78C509.976 789.183 510.165 789.118 510.316 788.995C510.466 788.872 510.567 788.7 510.6 788.51C511.28 784.82 512.51 781.37 512.99 777.82C513.49 774.127 514.52 768.65 516.08 761.39C516.994 757.117 518.004 748.063 519.11 734.23C519.317 731.677 519.094 729.207 518.44 726.82C516.96 721.35 511.84 720.89 506.48 719.64C503.987 719.06 501.99 718.69 500.49 718.53C496.704 718.123 491.624 717.45 485.25 716.51C484.197 716.357 482.897 716.293 481.35 716.32Z" stroke="#9298A6" stroke-width="2"/>
<path d="M528.17 844.2C530.084 839.847 531.594 835.023 532.7 829.73C534.69 820.22 536.83 807.4 539.11 797.22C541.59 786.127 543.677 775.36 545.37 764.92C545.684 762.993 547.134 756.877 549.72 746.57C550.8 742.3 551.36 737.63 552.47 733.25C552.877 731.623 552.36 730.647 550.92 730.32C548.107 729.687 545.257 729.357 542.37 729.33C542.188 729.327 542.009 729.385 541.864 729.496C541.719 729.607 541.615 729.763 541.57 729.94C539.45 737.9 538.96 750.68 537.4 760.16C536.11 768.05 535.23 772.51 534.47 779.37C533.59 787.33 532.5 796.22 531.2 806.04C529.55 818.53 528.89 832.09 527.55 844.03C527.543 844.108 527.564 844.187 527.609 844.252C527.654 844.317 527.72 844.365 527.795 844.385C527.87 844.406 527.95 844.398 528.018 844.364C528.087 844.33 528.141 844.272 528.17 844.2Z" stroke="#9298A6" stroke-width="2"/>
<path d="M209.45 210.32C211.204 210.353 213.144 210.077 215.27 209.49C224.424 206.95 233.21 202.48 241.63 196.08C257.237 184.22 267.1 168.267 271.22 148.22C271.85 145.19 273.19 138.05 269.44 136.81C244.72 128.65 222.34 120.58 197.97 112.05C197.442 111.864 196.867 111.866 196.34 112.056C195.814 112.245 195.369 112.611 195.08 113.09C192.247 117.837 189.07 122.313 185.55 126.52C184.03 128.333 180.364 131.55 174.55 136.17C172.14 138.08 171.67 139.3 173.17 142.07C178.284 151.49 187.2 168.573 199.92 193.32C202.64 198.607 205.16 203.843 207.48 209.03C207.65 209.409 207.926 209.732 208.275 209.961C208.624 210.189 209.031 210.314 209.45 210.32Z" stroke="#9298A6" stroke-width="2"/>
<path d="M385.14 329.46L391.02 321.47" stroke="#9298A6" stroke-width="2"/>
<path d="M391.02 321.47L399.33 310.04" stroke="#275160" stroke-width="2"/>
<path d="M399.33 310.04C402.043 307.233 404.02 304.293 405.26 301.22" stroke="#9298A6" stroke-width="2"/>
<path d="M405.26 301.22C406.52 300.293 407.564 299.193 408.39 297.92C413.28 290.37 418.9 283.3 423.83 275.85C424.143 275.377 424.296 274.817 424.267 274.252C424.239 273.686 424.029 273.146 423.67 272.71C421.817 270.45 419.93 268.537 418.01 266.97C411.59 261.723 406.59 257.323 403.01 253.77C398.164 248.957 393.29 244.453 388.39 240.26C380.9 233.86 375.81 228.88 368.53 222.98C366.017 220.94 363.1 218.297 359.78 215.05C353.03 208.45 343.83 201.6 337.36 195.73C332.62 191.437 329.32 188.483 327.46 186.87C317.79 178.5 309.18 170.25 299.6 162.24C296.57 159.7 293.88 156.66 291.03 154.51C290.895 154.408 290.736 154.343 290.568 154.32C290.4 154.298 290.229 154.318 290.072 154.38C289.914 154.443 289.775 154.544 289.668 154.675C289.561 154.807 289.49 154.963 289.46 155.13C287.487 166.79 283.097 177.35 276.29 186.81C264.11 203.72 249.23 216.64 230.05 224.4C229.767 224.513 229.51 224.685 229.298 224.906C229.087 225.126 228.924 225.389 228.822 225.678C228.72 225.966 228.68 226.274 228.706 226.579C228.731 226.885 228.822 227.182 228.97 227.45C230.124 229.537 231.737 231.52 233.81 233.4C243.697 242.353 260.217 256.68 283.37 276.38C297.257 288.207 304.61 294.543 305.43 295.39C307.057 297.083 309.974 299.61 314.18 302.97C321.81 309.05 329.23 316.29 336.11 322.07C348.284 332.303 357.267 339.75 363.06 344.41C363.503 344.765 364.053 344.959 364.62 344.959C365.188 344.959 365.738 344.765 366.18 344.41C369.567 341.717 373.13 339.74 376.87 338.48C377.72 338.197 378.495 337.729 379.14 337.11C381.607 334.763 383.607 332.213 385.14 329.46" stroke="#275160" stroke-width="2"/>
<path d="M397.76 344.86C396.54 347.54 398.02 348.52 400.28 349.74C403.83 351.66 410 354.28 414.8 356.07C428.053 361.01 439.203 365.24 448.25 368.76C451.377 369.98 455.14 370.973 459.54 371.74C462.08 372.18 464.153 371.273 465.76 369.02C488.307 337.367 500.007 320.983 500.86 319.87C503.033 317.03 504.283 315 504.61 313.78C506.44 307.02 502.33 303.78 496.04 299.75C492.84 297.71 487.487 293.953 479.98 288.48C473.42 283.69 467.59 280.26 461.24 275.72C457.707 273.187 455.14 271.79 453.54 271.53C450.94 271.103 448.523 272.43 446.29 275.51C432.597 294.39 421.93 309.313 414.29 320.28C409.623 326.98 405.867 332.227 403.02 336.02C400.9 338.847 399.147 341.793 397.76 344.86Z" stroke="#9298A6" stroke-width="2"/>
<path d="M527.1 450.06C527.104 450.164 527.133 450.266 527.184 450.356C527.235 450.447 527.308 450.524 527.395 450.581C527.482 450.638 527.582 450.673 527.685 450.683C527.789 450.693 527.894 450.679 527.99 450.64C528.177 450.567 528.394 450.4 528.64 450.14C530.64 448.013 532.917 444.963 535.47 440.99C538.29 436.603 542.087 431.067 546.86 424.38C556.32 411.13 564.42 398.52 574.14 385.35C576.25 382.49 578.2 379.17 580.44 375.73C580.666 375.385 580.838 375.008 580.95 374.61C582.364 369.897 581.497 366.077 578.35 363.15C573.057 358.21 566.754 352.733 559.44 346.72C551.01 339.79 544.18 332.84 535.3 325.66C527.69 319.51 523.04 323.97 517.92 330.95C506.574 346.423 495.577 362.113 484.93 378.02C482.95 380.98 481.61 385.08 485.62 387.24C490.634 389.953 496.687 392.783 503.78 395.73C508.91 397.86 514.77 401.1 518.58 403.16C522.094 405.073 524.25 407.677 525.05 410.97C525.984 414.85 526.477 419.197 526.53 424.01C526.63 433.47 526.82 442.153 527.1 450.06Z" stroke="#9298A6" stroke-width="2"/>
<path d="M510.69 505.45C506.52 511.71 510.59 515.14 515.87 517.43C522.337 520.237 530.727 524.247 541.04 529.46C546.51 532.23 551.77 534.34 557.01 535.72C565.69 538 568.63 531.78 572.86 526.11C573.927 524.677 579.403 518.147 589.29 506.52C596.33 498.23 607.26 487.24 613.48 479.73C629.72 460.083 640.254 447.357 645.08 441.55C650.03 435.61 649.8 429.77 645.14 424.29C643.094 421.89 641.44 420.117 640.18 418.97C628.96 408.77 619.897 400.12 612.99 393.02C611.057 391.033 608.927 389.41 606.6 388.15C600.12 384.65 596.15 389.66 592.34 394.84C580.227 411.307 567.197 429.11 553.25 448.25C544.6 460.13 533.11 474.38 523.47 487.85C517.73 495.88 514.1 500.33 510.69 505.45Z" stroke="#9298A6" stroke-width="2"/>
<path d="M701.45 505.22C705.57 501.75 706.52 498.37 702.93 494.05C694.517 483.95 686.61 474.283 679.21 465.05C678.157 463.743 675.907 461.083 672.46 457.07C669.34 453.45 665.837 452.853 661.95 455.28C660.68 456.08 658.8 457.99 657.85 459.06C645.117 473.36 632.76 487.657 620.78 501.95C610.9 513.72 602.44 523.21 593.41 533.92C593.277 534.08 589.91 537.953 583.31 545.54C580.897 548.307 580.877 551.047 583.25 553.76C590.977 562.587 597.647 570.167 603.26 576.5C608.5 582.41 613.15 580.48 618.3 576.3C630.773 566.2 642.163 556.593 652.47 547.48C661.46 539.53 670.29 532.69 678.56 525.19C685.773 518.643 693.403 511.987 701.45 505.22Z" stroke="#9298A6" stroke-width="2"/>
<path d="M501.7 475.97C501.094 475.91 500.404 475.953 499.63 476.1C481.85 479.507 465.704 482.35 451.19 484.63C448.17 485.103 445.564 485.26 443.37 485.1C436.877 484.633 429.864 483.303 422.33 481.11C422.082 481.037 421.821 481.023 421.566 481.069C421.312 481.116 421.071 481.222 420.864 481.378C420.658 481.534 420.49 481.737 420.374 481.97C420.259 482.203 420.199 482.46 420.2 482.72V485.77C420.2 486.295 420.355 486.808 420.644 487.246C420.934 487.683 421.347 488.026 421.83 488.23C429.73 491.57 438.09 494.21 444.26 496.81C453.23 500.59 461.09 503.94 471.06 506.16C476.287 507.32 480.57 506.86 483.91 504.78C486.43 503.207 489.437 500.007 492.93 495.18C496.99 489.58 500.127 483.51 502.34 476.97C502.377 476.862 502.389 476.747 502.375 476.634C502.361 476.521 502.322 476.412 502.261 476.316C502.199 476.22 502.117 476.139 502.02 476.079C501.923 476.019 501.814 475.982 501.7 475.97Z" stroke="#9298A6" stroke-width="2"/>
<path d="M636.14 587.95C642.04 593.77 648.414 599.53 655.26 605.23C661.65 610.55 669.35 618.8 676.31 625.01C701.824 647.777 728.904 671.133 757.55 695.08C761.87 698.69 763.75 699.47 769.05 698.53C772.697 697.883 776.127 696.73 779.34 695.07C792.59 688.22 804.77 676.24 813.03 664.09C818.27 656.383 822.23 646.907 824.91 635.66C825.6 632.77 827.29 624.57 824.77 622.47C814.364 613.81 796.674 598.84 771.7 577.56C758.18 566.04 744.097 553.99 729.45 541.41C723.26 536.1 717.35 530.52 711.04 525.39C710.637 525.063 710.132 524.885 709.611 524.886C709.09 524.888 708.585 525.07 708.18 525.4C691.92 538.75 675.51 553.13 661.47 564.71C649.65 574.457 642.08 580.893 638.76 584.02C637.754 584.967 636.87 585.85 636.11 586.67C635.949 586.844 635.862 587.075 635.868 587.313C635.874 587.552 635.971 587.78 636.14 587.95Z" stroke="#275160" stroke-width="2"/>
<path d="M779.98 714.77C806.28 737.163 821.423 750.147 825.41 753.72C832.92 760.45 843.83 757.71 851.88 753.46C871.59 743.05 887.25 724.36 892.66 702.93C894.26 696.583 894.507 690.443 893.4 684.51C893.199 683.432 892.622 682.458 891.77 681.76C890.51 680.727 888.233 678.907 884.94 676.3C881.28 673.393 871.013 664.657 854.14 650.09C853.793 649.79 850.216 646.663 843.41 640.71C843.299 640.612 843.164 640.544 843.019 640.513C842.875 640.481 842.725 640.488 842.584 640.531C842.443 640.574 842.316 640.653 842.215 640.76C842.115 640.866 842.044 640.997 842.01 641.14C835.35 667.5 821.09 688.297 799.23 703.53C793.623 707.437 787.33 710.553 780.35 712.88C780.163 712.943 779.997 713.054 779.867 713.202C779.737 713.35 779.649 713.529 779.611 713.722C779.574 713.914 779.588 714.113 779.653 714.297C779.718 714.481 779.83 714.644 779.98 714.77Z" stroke="#4E7D94" stroke-width="2"/>
<path d="M454.06 210.61C454.06 208.663 453.287 206.796 451.91 205.42C450.534 204.043 448.667 203.27 446.72 203.27C444.773 203.27 442.906 204.043 441.53 205.42C440.153 206.796 439.38 208.663 439.38 210.61C439.38 212.557 440.153 214.424 441.53 215.8C442.906 217.177 444.773 217.95 446.72 217.95C448.667 217.95 450.534 217.177 451.91 215.8C453.287 214.424 454.06 212.557 454.06 210.61Z" stroke="#9298A6" stroke-width="2"/>
<path d="M488.103 164.869C487.767 164.006 487.258 163.219 486.606 162.553C485.955 161.888 485.173 161.357 484.306 160.992C483.439 160.626 482.503 160.433 481.553 160.423C480.602 160.412 479.655 160.586 478.765 160.932C476.969 161.633 475.516 162.998 474.727 164.726C473.938 166.455 473.876 168.406 474.557 170.151C474.893 171.015 475.402 171.802 476.054 172.467C476.705 173.132 477.487 173.663 478.354 174.029C479.221 174.394 480.157 174.588 481.107 174.598C482.058 174.608 483.005 174.435 483.895 174.088C485.691 173.387 487.144 172.023 487.933 170.294C488.722 168.565 488.784 166.614 488.103 164.869Z" stroke="#9298A6" stroke-width="2"/>
<path d="M290 153L226.25 228.25L365.75 345.5L369.5 342L379.5 338L426.5 275L290 153Z" fill="#266D6F"/>
<path d="M546.21 707.22C546.194 707.115 546.204 707.008 546.241 706.909C546.278 706.81 546.339 706.721 546.42 706.651C546.501 706.581 546.598 706.533 546.703 706.51C546.808 706.487 546.917 706.491 547.02 706.52C556.16 709.13 568.56 711.85 576.27 713.02C586.323 714.547 596.193 713.5 605.88 709.88C611.86 707.64 617.1 703.87 621.6 698.57C631.693 686.697 639.823 675.587 645.99 665.24C650.49 657.7 653.47 652.48 652 644.27C651.53 641.61 648.29 638.91 646.59 637.43C628.37 621.677 611.467 606.66 595.88 592.38C591.86 588.687 583.42 581.673 570.56 571.34C559.713 562.613 547.13 554.58 532.81 547.24C523.28 542.35 511.02 537.76 501.84 534.4C497.007 532.633 490.813 531.093 483.26 529.78C482.427 529.633 481.917 529.61 481.73 529.71C481.551 529.804 481.395 529.935 481.272 530.096C481.149 530.256 481.063 530.441 481.018 530.639C480.973 530.836 480.972 531.041 481.014 531.24C481.055 531.439 481.14 531.626 481.26 531.79C490.16 543.75 497.01 552.45 503.33 564.5C510.46 578.05 515.99 588.97 518.98 603.24C523.04 622.6 525.49 634.07 525.31 650.01C525.22 657.41 518.27 656.74 516.76 650.48C514.1 639.47 511.42 626.88 507.02 615.68C502.253 603.573 497.15 592.69 491.71 583.03C488.763 577.797 484.43 571.397 478.71 563.83C474.697 558.517 469.54 552.78 463.24 546.62C456.333 539.873 448.417 532.183 439.49 523.55C435.25 519.443 430.99 516.38 426.71 514.36C424.49 513.313 420.213 511.657 413.88 509.39C407.807 507.223 403.42 505.853 400.72 505.28C394.907 504.047 389.443 502.597 384.33 500.93C381.837 500.117 379.397 498.867 377.01 497.18C376.674 496.948 376.433 496.604 376.33 496.21C375.163 491.89 375.887 488.263 378.5 485.33C379.387 484.33 380.517 483.753 381.89 483.6C386.103 483.133 389.98 482.707 393.52 482.32C396.153 482.027 398.47 480.89 400.47 478.91C400.757 478.624 400.949 478.261 401.02 477.87C402 472.64 400.75 468.58 398.76 463.48C396.99 458.95 393.67 453.35 392.54 447.55C391.82 443.877 392.77 440.943 395.39 438.75C398.4 436.23 400.95 437.79 403.31 440.53C412.01 450.623 421.913 459.54 433.02 467.28C436.35 469.6 443.44 469.49 447.44 468.9C466.167 466.167 485.343 463.417 504.97 460.65C506.063 460.497 506.803 460.35 507.19 460.21C507.473 460.111 507.719 459.924 507.892 459.677C508.066 459.43 508.16 459.134 508.16 458.83C508.153 446.497 507.983 435.543 507.65 425.97C507.617 424.93 507.28 422.63 506.64 419.07C506.549 418.561 506.316 418.089 505.97 417.71C504.377 415.93 503.097 414.82 502.13 414.38C490.87 409.21 480.06 403.68 469.57 399.4C456.73 394.15 447.55 390.37 437.96 385.95C430.36 382.457 424.153 379.733 419.34 377.78C410.62 374.24 401.21 369.28 391.97 365.52C385.61 362.93 378.73 360.88 374.01 367.53C366.96 377.46 360.48 387.6 353.47 397.02C348.363 403.873 342.673 411.897 336.4 421.09C333.027 426.037 330.16 430.05 327.8 433.13C319.83 443.54 316.23 449.33 307.83 460.74C302.383 468.14 298.747 473.203 296.92 475.93C293.073 481.69 289.577 486.86 286.43 491.44C282.47 497.21 284.73 504.23 288.46 509.28C292.367 514.56 295.917 519.587 299.11 524.36C308.44 538.28 316.09 548.48 324.7 561.55C334.82 576.92 345.25 591.65 354.78 606.09C363.327 619.057 375.393 637.11 390.98 660.25C398.393 671.25 404.153 679.997 408.26 686.49C415.73 698.31 419.07 710.92 419.11 725.87C419.13 734.41 418.71 741.713 417.85 747.78C415.01 767.733 413.5 778.243 413.32 779.31C410.8 794.29 408.88 810.09 406.93 822.9C404.05 841.867 401.003 862.737 397.79 885.51C397.57 887.063 396.943 890.843 395.91 896.85C394.803 903.29 394.107 907.083 393.82 908.23C393.737 908.567 393.544 908.867 393.272 909.081C393 909.295 392.665 909.411 392.32 909.41H377.39C377.295 909.409 377.201 909.389 377.115 909.349C377.029 909.31 376.953 909.253 376.891 909.181C376.829 909.11 376.784 909.027 376.758 908.937C376.732 908.847 376.726 908.752 376.74 908.66C382.91 864.61 389.11 814.68 395.77 770.73C397.557 758.937 398.617 749.94 398.95 743.74C399.403 735.36 399.527 726.28 399.32 716.5C399.12 707.19 394.66 698.82 389.6 691.4C357.647 644.587 327.907 600.807 300.38 560.06C288.46 542.41 277.22 526.93 266.22 510.27C262.68 504.91 261.537 498.913 262.79 492.28C262.883 491.789 263.048 491.317 263.28 490.88C267.28 483.26 272.127 475.74 277.82 468.32C281.73 463.21 285.39 458.54 289.3 452.84C296.14 442.86 303.38 433.82 309.58 424.68C312.733 420.027 316.003 415.343 319.39 410.63C333.13 391.537 341.883 379.24 345.65 373.74C348.44 369.67 351.03 366.75 353.42 362.95C353.697 362.509 353.804 361.982 353.724 361.468C353.643 360.953 353.379 360.485 352.98 360.15C342.83 351.65 332.62 343.7 324.23 335.82C317.42 329.4 309.91 323.59 301.46 316.25C285.28 302.197 267.46 286.933 248 270.46C240.453 264.073 233.46 258.063 227.02 252.43C215.41 242.27 207.95 235.6 200.29 229.64C195.22 225.69 192.82 222.82 189.92 217.15C172.547 183.237 157.947 154.747 146.12 131.68C135.613 111.193 126.827 94.3234 119.76 81.0701C117.87 77.5201 109.76 62.6601 115.19 61.1101C116.73 60.6701 118.337 60.7834 120.01 61.4501C139.317 69.0901 158.067 76.2534 176.26 82.9401C200.147 91.7201 218.483 98.4134 231.27 103.02C238.723 105.707 246.947 108.567 255.94 111.6C269.467 116.16 277.693 119.01 280.62 120.15C284.13 121.52 287.67 125.8 290.51 128.9C291.67 130.16 293.16 131.593 294.98 133.2C321.22 156.353 352.27 183.627 388.13 215.02C394.803 220.86 401.083 226.413 406.97 231.68C416.3 240.03 426.22 248.14 435.43 257.02C435.806 257.381 436.303 257.587 436.823 257.596C437.342 257.605 437.845 257.417 438.23 257.07C444.83 251.12 452.74 250.86 460.8 252.58C463.127 253.073 465.753 254.397 468.68 256.55C489.26 271.71 502.517 281.457 508.45 285.79C509.777 286.757 512.603 289.11 516.93 292.85C519.823 295.343 521.973 298.287 523.38 301.68C523.444 301.838 523.548 301.978 523.683 302.085C523.818 302.191 523.979 302.262 524.15 302.29C524.67 302.383 526.467 302.327 529.54 302.12C537.79 301.57 542.03 305.57 548.95 311.74C563.65 324.84 579.97 338.34 591.02 347.98C595.15 351.58 598.76 356.45 599.25 362.54C599.403 364.507 599.513 365.687 599.58 366.08C599.604 366.232 599.671 366.374 599.774 366.489C599.876 366.604 600.011 366.688 600.16 366.73C600.727 366.877 602.423 366.917 605.25 366.85C613.12 366.65 618.92 370.99 624.82 377.32C628.167 380.92 631.793 384.477 635.7 387.99C642.6 394.2 652.06 404.13 660.89 412.35C664.88 416.06 667.62 421.78 667.4 427.54C667.333 429.227 667.267 430.773 667.2 432.18C667.186 432.412 667.265 432.64 667.419 432.814C667.572 432.988 667.788 433.095 668.02 433.11C673.753 433.483 678.64 435.117 682.68 438.01C687.73 441.62 691.77 448.26 696.3 454.43C697.673 456.303 699.463 458.56 701.67 461.2C705.517 465.8 711.677 473.177 720.15 483.33C723.603 487.463 725.607 490.407 726.16 492.16C728.13 498.34 726.54 502.87 724.39 508.79C724.16 509.43 724.116 510.122 724.265 510.784C724.414 511.447 724.749 512.052 725.23 512.53C727.85 515.117 730.943 517.92 734.51 520.94C743.05 528.16 751.12 535.177 758.72 541.99C764.76 547.403 794.813 573.48 848.88 620.22C868.227 636.953 886.633 652.973 904.1 668.28C910.6 673.98 913.67 680.42 913.91 689.48C914.22 700.88 911.18 712.52 906.15 722.94C894.63 746.76 873.87 767.56 848.11 775.62C838.863 778.513 830.273 778.167 822.34 774.58C819.873 773.46 816.523 771.08 812.29 767.44C782.08 741.45 749.98 713.06 717.12 685.42C708.56 678.213 693.567 665.403 672.14 646.99C672.065 646.924 671.972 646.88 671.873 646.864C671.774 646.849 671.672 646.861 671.58 646.901C671.487 646.941 671.408 647.006 671.352 647.089C671.295 647.172 671.263 647.27 671.26 647.37C671.01 652.29 670.17 657.45 668.46 662.18C660.74 683.58 644.73 699.86 629.58 716.06C627.113 718.693 625.083 722.233 623.49 726.68C621.257 732.907 619.843 739.847 619.25 747.5C615.11 800.73 615.55 851.2 615.47 908.64C615.471 908.82 615.403 908.993 615.28 909.125C615.158 909.257 614.99 909.337 614.81 909.35C609.197 909.817 603.497 909.81 597.71 909.33C597.596 909.318 597.491 909.266 597.413 909.183C597.336 909.1 597.292 908.992 597.29 908.88C596.863 872.833 596.95 839.957 597.55 810.25C598.2 778.19 598.88 753.64 603.1 725.75C603.114 725.658 603.109 725.564 603.084 725.474C603.059 725.384 603.015 725.3 602.956 725.228C602.896 725.157 602.822 725.098 602.739 725.057C602.655 725.016 602.563 724.993 602.47 724.99C600.263 724.903 597.457 724.85 594.05 724.83C588.23 724.8 582.53 723.49 577.29 721.69C568.95 718.82 560.38 715.76 551.72 711.23C551.316 711.018 550.945 710.748 550.62 710.43C549.58 709.41 548.213 708.447 546.52 707.54C546.333 707.44 546.23 707.333 546.21 707.22ZM209.45 210.32C211.203 210.353 213.143 210.077 215.27 209.49C224.423 206.95 233.21 202.48 241.63 196.08C257.237 184.22 267.1 168.267 271.22 148.22C271.85 145.19 273.19 138.05 269.44 136.81C244.72 128.65 222.34 120.58 197.97 112.05C197.442 111.864 196.867 111.866 196.34 112.056C195.813 112.245 195.368 112.61 195.08 113.09C192.247 117.837 189.07 122.313 185.55 126.52C184.03 128.333 180.363 131.55 174.55 136.17C172.14 138.08 171.67 139.3 173.17 142.07C178.283 151.49 187.2 168.573 199.92 193.32C202.64 198.607 205.16 203.843 207.48 209.03C207.65 209.409 207.925 209.732 208.274 209.961C208.623 210.189 209.031 210.314 209.45 210.32ZM385.14 329.46L391.02 321.47L399.33 310.04C402.043 307.233 404.02 304.293 405.26 301.22C406.52 300.293 407.563 299.193 408.39 297.92C413.28 290.37 418.9 283.3 423.83 275.85C424.143 275.377 424.296 274.817 424.267 274.252C424.238 273.687 424.029 273.146 423.67 272.71C421.817 270.45 419.93 268.537 418.01 266.97C411.59 261.723 406.59 257.323 403.01 253.77C398.163 248.957 393.29 244.453 388.39 240.26C380.9 233.86 375.81 228.88 368.53 222.98C366.017 220.94 363.1 218.297 359.78 215.05C353.03 208.45 343.83 201.6 337.36 195.73C332.62 191.437 329.32 188.483 327.46 186.87C317.79 178.5 309.18 170.25 299.6 162.24C296.57 159.7 293.88 156.66 291.03 154.51C290.895 154.408 290.736 154.343 290.568 154.32C290.4 154.298 290.229 154.318 290.072 154.381C289.914 154.443 289.775 154.544 289.668 154.676C289.561 154.807 289.489 154.963 289.46 155.13C287.487 166.79 283.097 177.35 276.29 186.81C264.11 203.72 249.23 216.64 230.05 224.4C229.766 224.513 229.51 224.685 229.298 224.906C229.086 225.126 228.924 225.389 228.822 225.678C228.72 225.966 228.68 226.274 228.706 226.579C228.731 226.885 228.821 227.182 228.97 227.45C230.123 229.537 231.737 231.52 233.81 233.4C243.697 242.353 260.217 256.68 283.37 276.38C297.257 288.207 304.61 294.543 305.43 295.39C307.057 297.083 309.973 299.61 314.18 302.97C321.81 309.05 329.23 316.29 336.11 322.07C348.283 332.303 357.267 339.75 363.06 344.41C363.502 344.766 364.053 344.959 364.62 344.959C365.188 344.959 365.738 344.766 366.18 344.41C369.567 341.717 373.13 339.74 376.87 338.48C377.719 338.197 378.495 337.729 379.14 337.11C381.607 334.763 383.607 332.213 385.14 329.46ZM397.76 344.86C396.54 347.54 398.02 348.52 400.28 349.74C403.83 351.66 410 354.28 414.8 356.07C428.053 361.01 439.203 365.24 448.25 368.76C451.377 369.98 455.14 370.973 459.54 371.74C462.08 372.18 464.153 371.273 465.76 369.02C488.307 337.367 500.007 320.983 500.86 319.87C503.033 317.03 504.283 315 504.61 313.78C506.44 307.02 502.33 303.78 496.04 299.75C492.84 297.71 487.487 293.953 479.98 288.48C473.42 283.69 467.59 280.26 461.24 275.72C457.707 273.187 455.14 271.79 453.54 271.53C450.94 271.103 448.523 272.43 446.29 275.51C432.597 294.39 421.93 309.313 414.29 320.28C409.623 326.98 405.867 332.227 403.02 336.02C400.9 338.847 399.147 341.793 397.76 344.86ZM527.1 450.06C527.104 450.164 527.133 450.266 527.184 450.356C527.235 450.447 527.308 450.524 527.395 450.581C527.482 450.638 527.582 450.673 527.685 450.683C527.789 450.693 527.893 450.679 527.99 450.64C528.177 450.567 528.393 450.4 528.64 450.14C530.64 448.013 532.917 444.963 535.47 440.99C538.29 436.603 542.087 431.067 546.86 424.38C556.32 411.13 564.42 398.52 574.14 385.35C576.25 382.49 578.2 379.17 580.44 375.73C580.666 375.385 580.837 375.008 580.95 374.61C582.363 369.897 581.497 366.077 578.35 363.15C573.057 358.21 566.753 352.733 559.44 346.72C551.01 339.79 544.18 332.84 535.3 325.66C527.69 319.51 523.04 323.97 517.92 330.95C506.573 346.423 495.577 362.113 484.93 378.02C482.95 380.98 481.61 385.08 485.62 387.24C490.633 389.953 496.687 392.783 503.78 395.73C508.91 397.86 514.77 401.1 518.58 403.16C522.093 405.073 524.25 407.677 525.05 410.97C525.983 414.85 526.477 419.197 526.53 424.01C526.63 433.47 526.82 442.153 527.1 450.06ZM510.69 505.45C506.52 511.71 510.59 515.14 515.87 517.43C522.337 520.237 530.727 524.247 541.04 529.46C546.51 532.23 551.77 534.34 557.01 535.72C565.69 538 568.63 531.78 572.86 526.11C573.927 524.677 579.403 518.147 589.29 506.52C596.33 498.23 607.26 487.24 613.48 479.73C629.72 460.083 640.253 447.357 645.08 441.55C650.03 435.61 649.8 429.77 645.14 424.29C643.093 421.89 641.44 420.117 640.18 418.97C628.96 408.77 619.897 400.12 612.99 393.02C611.057 391.033 608.927 389.41 606.6 388.15C600.12 384.65 596.15 389.66 592.34 394.84C580.227 411.307 567.197 429.11 553.25 448.25C544.6 460.13 533.11 474.38 523.47 487.85C517.73 495.88 514.1 500.33 510.69 505.45ZM701.45 505.22C705.57 501.75 706.52 498.37 702.93 494.05C694.517 483.95 686.61 474.283 679.21 465.05C678.157 463.743 675.907 461.083 672.46 457.07C669.34 453.45 665.837 452.853 661.95 455.28C660.68 456.08 658.8 457.99 657.85 459.06C645.117 473.36 632.76 487.657 620.78 501.95C610.9 513.72 602.44 523.21 593.41 533.92C593.277 534.08 589.91 537.953 583.31 545.54C580.897 548.307 580.877 551.047 583.25 553.76C590.977 562.587 597.647 570.167 603.26 576.5C608.5 582.41 613.15 580.48 618.3 576.3C630.773 566.2 642.163 556.593 652.47 547.48C661.46 539.53 670.29 532.69 678.56 525.19C685.773 518.643 693.403 511.987 701.45 505.22ZM501.7 475.97C501.093 475.91 500.403 475.953 499.63 476.1C481.85 479.507 465.703 482.35 451.19 484.63C448.17 485.103 445.563 485.26 443.37 485.1C436.877 484.633 429.863 483.303 422.33 481.11C422.082 481.037 421.82 481.023 421.566 481.07C421.311 481.116 421.071 481.222 420.864 481.378C420.657 481.535 420.49 481.737 420.374 481.97C420.259 482.203 420.199 482.46 420.2 482.72V485.77C420.2 486.295 420.354 486.808 420.644 487.246C420.934 487.683 421.347 488.026 421.83 488.23C429.73 491.57 438.09 494.21 444.26 496.81C453.23 500.59 461.09 503.94 471.06 506.16C476.287 507.32 480.57 506.86 483.91 504.78C486.43 503.207 489.437 500.007 492.93 495.18C496.99 489.58 500.127 483.51 502.34 476.97C502.377 476.862 502.389 476.747 502.375 476.634C502.361 476.521 502.322 476.412 502.261 476.316C502.199 476.22 502.117 476.139 502.02 476.079C501.923 476.019 501.814 475.982 501.7 475.97ZM636.14 587.95C642.04 593.77 648.413 599.53 655.26 605.23C661.65 610.55 669.35 618.8 676.31 625.01C701.823 647.777 728.903 671.133 757.55 695.08C761.87 698.69 763.75 699.47 769.05 698.53C772.697 697.883 776.127 696.73 779.34 695.07C792.59 688.22 804.77 676.24 813.03 664.09C818.27 656.383 822.23 646.907 824.91 635.66C825.6 632.77 827.29 624.57 824.77 622.47C814.363 613.81 796.673 598.84 771.7 577.56C758.18 566.04 744.097 553.99 729.45 541.41C723.26 536.1 717.35 530.52 711.04 525.39C710.636 525.063 710.132 524.885 709.611 524.887C709.09 524.888 708.584 525.07 708.18 525.4C691.92 538.75 675.51 553.13 661.47 564.71C649.65 574.457 642.08 580.893 638.76 584.02C637.753 584.967 636.87 585.85 636.11 586.67C635.949 586.844 635.862 587.075 635.868 587.313C635.873 587.552 635.971 587.78 636.14 587.95ZM779.98 714.77C806.28 737.163 821.423 750.147 825.41 753.72C832.92 760.45 843.83 757.71 851.88 753.46C871.59 743.05 887.25 724.36 892.66 702.93C894.26 696.583 894.507 690.443 893.4 684.51C893.2 683.432 892.622 682.458 891.77 681.76C890.51 680.727 888.233 678.907 884.94 676.3C881.28 673.393 871.013 664.657 854.14 650.09C853.793 649.79 850.217 646.663 843.41 640.71C843.299 640.612 843.164 640.544 843.02 640.513C842.875 640.482 842.725 640.488 842.584 640.531C842.443 640.574 842.316 640.653 842.216 640.76C842.115 640.867 842.044 640.998 842.01 641.14C835.35 667.5 821.09 688.297 799.23 703.53C793.623 707.437 787.33 710.553 780.35 712.88C780.164 712.943 779.997 713.054 779.867 713.202C779.738 713.35 779.649 713.53 779.612 713.722C779.574 713.914 779.588 714.113 779.653 714.297C779.718 714.481 779.831 714.644 779.98 714.77Z" fill="#283450"/>
<path d="M608.6 244.23C608.38 244.023 608.333 243.543 608.46 242.79C608.566 242.163 608.583 241.647 608.51 241.24C607.223 234.267 606.103 226.633 605.15 218.34C604.46 212.3 602.85 204.38 601.27 199.31C600.516 196.91 599.016 195.86 596.77 196.16C596.295 196.224 595.862 196.462 595.553 196.828C595.245 197.194 595.083 197.662 595.1 198.14C595.453 207.86 595.59 216.09 595.51 222.83C595.35 235.98 595.79 243.23 596.3 257.5C596.39 259.99 595.98 261.71 594.39 263.72C588.096 271.653 582.82 278.807 578.56 285.18C574.89 290.66 569.71 296.38 566.39 301.64C565.283 303.393 563.986 304.937 562.5 306.27C562.403 306.356 562.288 306.418 562.164 306.45C562.039 306.483 561.909 306.486 561.784 306.459C561.658 306.431 561.542 306.374 561.444 306.293C561.346 306.211 561.269 306.108 561.22 305.99C550.48 281.29 546.386 255.46 548.94 228.5C549.553 221.987 550.956 215.363 553.15 208.63C556.87 197.18 560.97 187.83 568.06 178.06C571.973 172.673 576.053 167.587 580.3 162.8C583.453 159.247 588.346 154.89 594.98 149.73C601.586 144.597 606.63 140.973 610.11 138.86C631.143 126.067 652.456 116.723 674.05 110.83C688.423 106.903 703.016 103.757 717.83 101.39C718.215 101.328 718.61 101.365 718.977 101.496C719.344 101.627 719.672 101.849 719.93 102.14C720.603 102.907 721.153 104.173 721.58 105.94C724.88 119.73 726.49 131.58 728.36 147.98C731.22 173.08 729.56 199.25 722.31 223.28C720.056 230.74 718.103 236.643 716.45 240.99C714.356 246.477 711.306 252.827 707.3 260.04C696.96 278.633 682.666 293.427 664.42 304.42C651.89 311.96 638.43 315.79 624.02 318.28C620.36 318.907 615.516 319.3 609.49 319.46C600.296 319.707 590.516 319.36 580.15 318.42C579.456 318.36 578.783 318.223 578.13 318.01C577.953 317.952 577.792 317.851 577.663 317.717C577.533 317.582 577.438 317.419 577.386 317.239C577.334 317.06 577.326 316.871 577.363 316.688C577.4 316.505 577.482 316.334 577.6 316.19C580.066 313.21 582.41 310.027 584.63 306.64C590.74 297.3 597.84 288.82 603.28 279.97C611 267.4 621.88 254.54 627.97 242.38C628.066 242.188 628.206 242.021 628.38 241.892C628.554 241.764 628.756 241.677 628.97 241.64C637.29 240.29 647.05 238.2 656.74 235.49C662.78 233.81 668.966 232.16 675.3 230.54C676.786 230.16 678.406 229.53 680.16 228.65C680.489 228.486 680.77 228.242 680.982 227.938C681.195 227.633 681.332 227.277 681.383 226.896C681.434 226.515 681.398 226.119 681.278 225.74C681.158 225.361 680.957 225.009 680.69 224.71C680.083 224.03 679.013 223.683 677.48 223.67C673.81 223.63 667.65 224.12 663.29 224.83C655.196 226.143 647.51 227.16 640.23 227.88C640.138 227.889 640.045 227.874 639.961 227.837C639.876 227.801 639.802 227.744 639.745 227.671C639.688 227.598 639.651 227.512 639.636 227.421C639.621 227.33 639.629 227.237 639.66 227.15C642.35 219.79 649.56 211.14 653.85 204.02C663.27 188.37 673.03 173.82 682.16 158.89C682.323 158.625 682.422 158.327 682.452 158.018C682.481 157.708 682.439 157.396 682.329 157.105C682.22 156.814 682.044 156.551 681.817 156.337C681.59 156.123 681.318 155.963 681.02 155.87L680.41 155.68C679.928 155.53 679.412 155.53 678.932 155.68C678.451 155.83 678.028 156.123 677.72 156.52C666.93 170.34 659.12 181.08 649.62 193.18C642.88 201.76 636.2 211.51 629.33 219.63C627.67 221.59 625.17 225.02 621.83 229.92C618.303 235.1 614.256 239.87 609.69 244.23C609.543 244.37 609.348 244.448 609.145 244.448C608.942 244.448 608.747 244.37 608.6 244.23Z" fill="#688E40"/>
<path d="M573.61 131.64C571.297 131.113 568.857 130.23 566.29 128.99C565.665 128.697 565.015 128.463 564.35 128.29C560.08 127.22 556.07 125.93 551.47 125.55C549.73 125.41 547.89 125.23 545.95 125.01C545.05 124.37 544.243 124.263 543.53 124.69C540.797 123.337 537.773 122.873 534.46 123.3C534.307 122.693 533.9 122.353 533.24 122.28C528.873 121.78 523.28 121.367 516.46 121.04C512.687 120.4 509.477 120.697 506.83 121.93C506.717 121.39 506.19 121.137 505.25 121.17C495.05 121.543 485.007 122.987 475.12 125.5C473.98 125.787 472.853 126.183 471.74 126.69L471.62 126.14C471.604 126.067 471.573 125.998 471.529 125.937C471.485 125.877 471.428 125.827 471.363 125.79C471.297 125.753 471.225 125.73 471.151 125.724C471.076 125.717 471.001 125.726 470.93 125.75L436.01 137.7C427.483 140.8 420.433 144.353 414.86 148.36C405.96 154.76 397.36 160.53 389.27 167.52C386.23 170.147 381.727 174.963 375.76 181.97L366.83 180.34L358.84 173.39C358.533 173.126 358.337 172.755 358.292 172.352C358.248 171.949 358.358 171.545 358.6 171.22C362.19 166.41 365.8 162.01 370.51 157.97C377.823 151.697 384.483 146.203 390.49 141.49C395.81 137.31 400.9 134.81 407.85 130.67C426.21 119.7 446.15 112.22 467.24 107.73C483.9 104.18 498.63 103.06 516.45 103.09C535.62 103.13 553.76 106.51 571.86 111.46C582.287 114.307 592.98 118.597 603.94 124.33C604.807 124.783 605.623 125.363 606.39 126.07C606.499 126.169 606.583 126.292 606.635 126.429C606.687 126.566 606.706 126.714 606.691 126.861C606.675 127.008 606.625 127.149 606.545 127.274C606.465 127.399 606.357 127.504 606.23 127.58C600.797 130.72 596.19 133.66 592.41 136.4C590.72 137.62 589.9 137.76 587.96 136.68C583.52 134.207 578.737 132.527 573.61 131.64Z" fill="#688E40"/>
<path d="M209.45 210.32C209.031 210.314 208.623 210.189 208.274 209.96C207.925 209.732 207.649 209.409 207.48 209.03C205.16 203.843 202.64 198.607 199.92 193.32C187.2 168.573 178.283 151.49 173.17 142.07C171.67 139.3 172.14 138.08 174.55 136.17C180.363 131.55 184.03 128.333 185.55 126.52C189.07 122.313 192.246 117.837 195.08 113.09C195.368 112.61 195.813 112.245 196.34 112.055C196.866 111.866 197.442 111.864 197.97 112.05C222.34 120.58 244.72 128.65 269.44 136.81C273.19 138.05 271.85 145.19 271.22 148.22C267.1 168.267 257.236 184.22 241.63 196.08C233.21 202.48 224.423 206.95 215.27 209.49C213.143 210.077 211.203 210.353 209.45 210.32Z" fill="#B96E46"/>
<path d="M516.46 121.04C516.727 147.96 516.73 168.697 516.47 183.25C516.437 184.95 516.647 186.32 517.1 187.36C517.127 187.419 517.164 187.474 517.21 187.52L539.9 209.26C540.285 209.629 540.559 210.099 540.691 210.617C540.824 211.134 540.809 211.679 540.65 212.19L538.29 219.78C538.233 219.965 538.13 220.133 537.989 220.266C537.848 220.399 537.675 220.494 537.487 220.541C537.298 220.589 537.1 220.587 536.911 220.536C536.723 220.484 536.55 220.386 536.41 220.25C524.857 208.89 518.99 203.12 518.81 202.94C514.75 198.847 511.253 194.987 508.32 191.36C507.705 190.602 507.366 189.657 507.36 188.68L506.83 121.93C509.477 120.697 512.687 120.4 516.46 121.04Z" fill="#283450"/>
<path d="M543.53 124.69C543.877 138.157 543.877 150.093 543.53 160.5C543.43 163.56 543.64 165.68 546.04 167.74C547.953 169.387 550.367 171.63 553.28 174.47C553.731 174.909 554.018 175.489 554.095 176.113C554.171 176.737 554.032 177.367 553.7 177.9L550.74 182.64C550.605 182.855 550.424 183.037 550.211 183.174C549.997 183.311 549.755 183.398 549.503 183.429C549.252 183.461 548.996 183.436 548.755 183.357C548.514 183.277 548.294 183.145 548.11 182.97L535.96 171.32C535.473 170.856 535.086 170.297 534.821 169.679C534.556 169.06 534.42 168.393 534.42 167.72L534.46 123.3C537.773 122.873 540.797 123.337 543.53 124.69Z" fill="#283450"/>
<path d="M573.61 131.64C576.317 134.993 578.91 138.067 581.39 140.86C582.13 141.7 582.4 142.66 582.2 143.74C582.141 144.059 581.984 144.352 581.75 144.58L574.14 151.85C574.021 151.965 573.879 152.053 573.724 152.11C573.568 152.166 573.403 152.189 573.237 152.178C573.071 152.167 572.91 152.121 572.762 152.044C572.615 151.967 572.485 151.86 572.38 151.73C564.634 142.07 555.824 133.163 545.95 125.01C547.89 125.23 549.73 125.41 551.47 125.55C556.07 125.93 560.08 127.22 564.35 128.29C565.015 128.463 565.665 128.697 566.29 128.99C568.857 130.23 571.297 131.113 573.61 131.64Z" fill="#283450"/>
<path d="M471.74 126.69C464.027 132.61 457.14 139.357 451.08 146.93C449.953 148.343 447.593 151.41 444 156.13C441.073 159.977 438.913 163.19 437.52 165.77C430.38 178.98 425.49 187.06 421.65 198.13C421.21 199.397 420.983 200.613 420.97 201.78C420.967 201.919 421.016 202.054 421.109 202.159C421.201 202.265 421.33 202.333 421.47 202.35L430.47 203.43C430.887 203.48 431.309 203.432 431.702 203.292C432.096 203.151 432.452 202.921 432.74 202.62C434.513 200.787 435.737 199.577 436.41 198.99C446.84 189.98 463.55 197.24 462.26 211.75C462.113 213.43 461.937 215.363 461.73 217.55C461.702 217.835 461.738 218.123 461.834 218.395C461.931 218.666 462.087 218.914 462.29 219.12C467.67 224.58 470.957 227.82 472.15 228.84C479.49 235.08 486.38 241.61 492.82 248.43C495.05 250.8 494.22 257.5 494.11 261.29C494.107 261.358 494.088 261.425 494.053 261.483C494.018 261.542 493.969 261.59 493.911 261.624C493.853 261.658 493.787 261.677 493.721 261.678C493.654 261.679 493.588 261.662 493.53 261.63C491.877 260.77 490.327 259.6 488.88 258.12C483.78 252.907 480.047 249.213 477.68 247.04C471.55 241.41 464.43 233.12 458.37 228.25C457.3 227.38 456.4 225.78 455.37 225.16C455.011 224.935 454.58 224.86 454.17 224.95C448.31 226.24 443.44 227.81 438.1 224.18C436.76 223.273 434.703 221.097 431.93 217.65C431.784 217.469 431.598 217.322 431.387 217.222C431.176 217.122 430.944 217.07 430.71 217.07H417.27C416.735 217.07 416.214 217.24 415.783 217.557C415.353 217.874 415.036 218.32 414.88 218.83L414.08 221.4C414.041 221.524 413.972 221.636 413.88 221.727C413.787 221.818 413.673 221.885 413.549 221.922C413.424 221.958 413.293 221.963 413.166 221.937C413.038 221.911 412.92 221.853 412.82 221.77C407.593 217.343 403.92 214.09 401.8 212.01C395.18 205.5 388.78 200.5 381.7 193.93C378.2 190.69 371.4 185.52 366.83 180.34L375.76 181.97C379.773 185.05 382.433 186.9 383.74 187.52C386.94 189.033 391.167 191.293 396.42 194.3C398.593 195.54 400.52 196.393 402.2 196.86C402.29 196.885 402.383 196.891 402.475 196.88C402.567 196.868 402.655 196.839 402.735 196.794C402.815 196.748 402.885 196.687 402.941 196.614C402.997 196.542 403.037 196.459 403.06 196.37C403.853 193.383 404.76 190.763 405.78 188.51C411.04 176.94 415.29 167.36 422.24 156.93C426.487 150.557 431.077 144.147 436.01 137.7L470.93 125.75C471.001 125.726 471.076 125.717 471.151 125.724C471.225 125.731 471.298 125.753 471.363 125.79C471.428 125.827 471.485 125.877 471.529 125.937C471.573 125.998 471.604 126.067 471.62 126.14L471.74 126.69ZM454.06 210.61C454.06 208.663 453.287 206.796 451.91 205.42C450.534 204.043 448.667 203.27 446.72 203.27C444.773 203.27 442.906 204.043 441.53 205.42C440.153 206.796 439.38 208.663 439.38 210.61C439.38 212.557 440.153 214.424 441.53 215.8C442.906 217.177 444.773 217.95 446.72 217.95C448.667 217.95 450.534 217.177 451.91 215.8C453.287 214.424 454.06 212.557 454.06 210.61Z" fill="#283450"/>
<path d="M525.01 283.13C525.011 283.33 524.955 283.525 524.849 283.695C524.743 283.864 524.591 283.999 524.411 284.086C524.23 284.173 524.028 284.207 523.828 284.185C523.628 284.162 523.438 284.085 523.28 283.96L515.89 278.08C515.665 277.902 515.483 277.675 515.356 277.415C515.23 277.156 515.163 276.87 515.16 276.58C515.147 263.833 515.213 252.223 515.36 241.75C515.38 240.45 515.22 239.37 514.88 238.51C514.715 238.101 514.466 237.733 514.15 237.43L476.29 201.14C476.173 201.026 476.079 200.89 476.016 200.74C475.952 200.591 475.92 200.431 475.92 200.27V183.23C475.919 182.961 475.855 182.696 475.731 182.456C475.608 182.216 475.429 182.008 475.21 181.85C472.243 179.75 469.767 177.287 467.78 174.46C464.65 170.02 465.55 161.5 469.05 157.54C473.543 152.467 478.91 150.81 485.15 152.57C490.96 154.21 495.28 159.01 496.18 165.01C497.35 172.75 493.64 177.53 487.96 181.91C487.704 182.107 487.495 182.359 487.348 182.65C487.201 182.941 487.12 183.262 487.11 183.59C487.043 186.317 487.043 189.957 487.11 194.51C487.13 196.263 487.283 197.463 487.57 198.11C487.715 198.434 487.915 198.729 488.16 198.98C493.35 204.3 500.29 210.18 505.25 215.03C511.317 220.95 516.74 226.123 521.52 230.55C522.78 231.723 523.793 232.867 524.56 233.98C524.853 234.403 525.01 234.909 525.01 235.43V283.13ZM488.103 164.869C487.766 164.005 487.258 163.218 486.606 162.553C485.955 161.888 485.173 161.357 484.306 160.992C483.439 160.626 482.503 160.433 481.553 160.422C480.602 160.412 479.655 160.586 478.765 160.932C476.969 161.633 475.516 162.998 474.727 164.726C473.938 166.455 473.876 168.406 474.556 170.151C474.893 171.015 475.402 171.802 476.053 172.467C476.705 173.132 477.487 173.663 478.354 174.029C479.221 174.394 480.156 174.588 481.107 174.598C482.058 174.608 483.005 174.435 483.894 174.088C485.691 173.387 487.143 172.023 487.933 170.294C488.722 168.565 488.783 166.614 488.103 164.869Z" fill="#283450"/>
<path d="M746.93 355.9C746.805 355.956 746.698 356.047 746.624 356.163C746.549 356.278 746.51 356.413 746.51 356.55V377.94C746.51 378.05 746.538 378.158 746.593 378.255C746.647 378.351 746.725 378.432 746.82 378.49L764.14 389.28C764.573 389.548 764.928 389.924 765.172 390.371C765.416 390.818 765.539 391.321 765.53 391.83C765.503 393.25 765.35 394.58 765.07 395.82C763.343 403.44 761.053 410.777 758.2 417.83C758.095 418.1 757.931 418.343 757.72 418.54C756.867 419.333 755.553 419.763 753.78 419.83C746.9 420.097 740.827 420.24 735.56 420.26C734.52 420.267 733.637 420.983 732.91 422.41C729.93 428.237 727.027 434.22 724.2 440.36C724.036 440.721 723.97 441.12 724.009 441.515C724.047 441.91 724.189 442.287 724.42 442.61L736.73 459.66C737.026 460.069 737.179 460.563 737.167 461.067C737.154 461.571 736.976 462.057 736.66 462.45L727.77 473.64C727.667 473.77 727.536 473.875 727.388 473.949C727.24 474.023 727.077 474.064 726.912 474.069C726.746 474.073 726.581 474.042 726.429 473.977C726.277 473.911 726.141 473.813 726.03 473.69C722.59 469.85 718.6 464.59 712.21 456.01C706.84 448.79 701.42 442.84 695.79 436.37C695.597 436.15 695.48 435.874 695.457 435.582C695.433 435.29 695.504 434.998 695.66 434.75C700.16 427.577 704.137 420.53 707.59 413.61C710.41 407.977 712.707 402.027 714.48 395.76C720.96 372.88 723.06 347.76 716.93 324.82C713.73 312.82 709.56 300.79 702.92 289.77C702.709 289.417 702.617 289.006 702.659 288.597C702.7 288.188 702.873 287.803 703.15 287.5C709.5 280.62 715.67 272.92 719.65 264.9C722.55 259.053 725.457 253.463 728.37 248.13C728.455 247.971 728.576 247.835 728.724 247.732C728.872 247.629 729.043 247.562 729.221 247.538C729.4 247.513 729.582 247.532 729.752 247.591C729.922 247.651 730.076 247.75 730.2 247.88C736.807 254.833 743.07 262.653 748.99 271.34C749.168 271.601 749.266 271.909 749.272 272.226C749.277 272.542 749.189 272.853 749.02 273.12C747.72 275.153 746.657 276.643 745.83 277.59C742.003 281.997 738.383 286.217 734.97 290.25C734.59 290.701 734.335 291.242 734.229 291.821C734.124 292.4 734.173 292.996 734.37 293.55L740.93 311.82C741.084 312.241 741.351 312.612 741.702 312.891C742.053 313.17 742.475 313.346 742.92 313.4L763.69 315.89C764.267 315.959 764.805 316.214 765.224 316.616C765.642 317.019 765.919 317.547 766.01 318.12C766.91 323.82 767.78 329.987 768.62 336.62C768.98 339.467 769.07 342.143 768.89 344.65C768.851 345.155 768.676 345.64 768.384 346.054C768.091 346.467 767.693 346.794 767.23 347L746.93 355.9Z" fill="#B96E46"/>
<path d="M258.02 296.3C258.079 296.112 258.182 295.941 258.322 295.802C258.462 295.664 258.634 295.562 258.823 295.506C259.012 295.449 259.212 295.44 259.405 295.479C259.598 295.519 259.778 295.605 259.93 295.73C268.597 302.883 276.317 309.473 283.09 315.5C287.92 319.8 293.86 324.17 299.34 329.02C300.507 330.047 300.977 331.3 300.75 332.78C297.137 356.427 300.57 378.997 311.05 400.49C311.85 402.13 310.82 403.1 309.99 404.36C307.21 408.573 304.687 412.07 302.42 414.85C298.774 419.317 296.174 422.743 294.62 425.13C290.127 432.03 284.747 439.14 278.48 446.46C278.435 446.511 278.379 446.551 278.317 446.577C278.254 446.603 278.186 446.614 278.118 446.609C278.05 446.604 277.984 446.584 277.926 446.549C277.867 446.515 277.817 446.467 277.78 446.41C273.894 440.37 270.417 434.447 267.35 428.64C266.797 427.6 266.437 426.607 266.27 425.66C266.193 425.227 266.263 424.782 266.47 424.4C269.47 418.8 274.98 413.43 280.03 408.81C280.475 408.401 280.789 407.869 280.933 407.282C281.078 406.695 281.045 406.079 280.84 405.51L274 386.45C273.917 386.222 273.779 386.016 273.598 385.851C273.417 385.686 273.198 385.565 272.96 385.5C268.89 384.42 258.12 382.73 250.85 379.96C250.669 379.891 250.506 379.783 250.373 379.643C250.24 379.503 250.14 379.334 250.08 379.15C249.747 378.077 249.537 376.527 249.45 374.5C248.97 363.113 248.66 354.99 248.52 350.13C248.511 349.861 248.592 349.596 248.749 349.377C248.906 349.158 249.132 348.997 249.39 348.92L272.05 342.12C272.24 342.064 272.409 341.953 272.535 341.802C272.662 341.65 272.74 341.465 272.76 341.27C273.314 336.09 274.397 330.013 276.01 323.04C276.264 321.947 276.187 320.743 275.78 319.43C275.663 319.047 275.429 318.711 275.11 318.47C270.09 314.63 263.22 308.91 257.64 303.19C257.235 302.776 256.95 302.26 256.815 301.699C256.679 301.137 256.698 300.55 256.87 300L258.02 296.3Z" fill="#B96E46"/>
<path d="M696.46 337.7C697.273 335.733 697.53 333.517 697.23 331.05C697.163 330.506 697.167 329.958 697.24 329.42C697.533 327.293 697.696 325.14 697.73 322.96C697.78 320.25 696.01 319.57 693.63 319.95L692.52 300.96C692.511 300.767 692.565 300.576 692.673 300.416C692.781 300.256 692.937 300.134 693.12 300.07C695.93 299.08 697.6 303.54 698.4 305.39C701.8 313.337 704.636 322.237 706.91 332.09C708.12 337.37 708.48 343.43 708.86 348.9C709.893 363.7 708.096 377.883 703.47 391.45C699.24 403.84 693.53 416.6 685.11 427.2C684.907 427.455 684.617 427.625 684.295 427.678C683.974 427.732 683.645 427.665 683.37 427.49C682.33 426.823 681.52 425.843 680.94 424.55C678.627 419.37 676.306 414.797 673.98 410.83C673.739 410.417 673.617 409.946 673.625 409.468C673.634 408.99 673.774 408.524 674.03 408.12C687.61 386.78 695.087 363.307 696.46 337.7Z" fill="#688E40"/>
<path d="M693.63 319.95C696.01 319.57 697.78 320.25 697.73 322.96C697.697 325.14 697.533 327.293 697.24 329.42C697.167 329.958 697.164 330.506 697.23 331.05C697.53 333.517 697.273 335.733 696.46 337.7C689.5 338.273 682.563 338.36 675.65 337.96C675.556 337.954 675.462 337.983 675.387 338.041C675.311 338.1 675.259 338.185 675.24 338.28C672.93 349.78 669.59 362.49 664.84 373.22C661.847 379.973 658.89 386.02 655.97 391.36C655.914 391.462 655.836 391.55 655.741 391.618C655.646 391.685 655.537 391.73 655.422 391.748C655.307 391.766 655.189 391.758 655.078 391.724C654.966 391.689 654.865 391.63 654.78 391.55L643.12 380.37C642.766 380.031 642.537 379.583 642.468 379.098C642.399 378.612 642.495 378.116 642.74 377.69C648.61 367.53 652.35 354.95 655.09 345.12C655.817 342.533 656.247 340.007 656.38 337.54C656.383 337.481 656.373 337.422 656.352 337.367C656.33 337.312 656.297 337.262 656.254 337.221C656.211 337.181 656.16 337.149 656.104 337.13C656.048 337.111 655.989 337.104 655.93 337.11C647.743 337.857 639.16 338.02 630.18 337.6C628.156 337.503 626.237 336.679 624.78 335.28L622.59 333.18C622.349 332.947 622.181 332.649 622.106 332.323C622.031 331.996 622.053 331.655 622.168 331.34C622.284 331.026 622.488 330.751 622.756 330.551C623.025 330.35 623.346 330.232 623.68 330.21C631.68 329.717 640.003 327.977 648.65 324.99C653.883 323.177 658.7 321.113 663.1 318.8C667.907 316.273 672.503 313.77 676.89 311.29C676.975 311.241 677.072 311.215 677.171 311.215C677.27 311.215 677.367 311.241 677.452 311.291C677.537 311.341 677.608 311.412 677.657 311.498C677.706 311.584 677.731 311.681 677.73 311.78V319.19C677.73 319.402 677.815 319.606 677.967 319.756C678.119 319.906 678.325 319.99 678.54 319.99L693.63 319.95Z" fill="#283450"/>
<path d="M318.06 344.58C320.7 346.233 323.047 348.017 325.1 349.93C329.94 354.423 334.547 358.557 338.92 362.33C339.111 362.492 339.233 362.721 339.262 362.971C339.292 363.221 339.227 363.474 339.08 363.68L325.52 382.26C325.427 382.388 325.3 382.487 325.153 382.546C325.006 382.605 324.846 382.622 324.69 382.594C324.534 382.565 324.39 382.494 324.273 382.387C324.156 382.28 324.072 382.142 324.03 381.99C322.397 376.137 320.673 368.963 318.86 360.47C317.66 354.81 317.56 349.04 317.39 344.97C317.387 344.89 317.406 344.812 317.445 344.742C317.483 344.673 317.54 344.615 317.608 344.575C317.677 344.535 317.755 344.514 317.835 344.515C317.914 344.516 317.992 344.538 318.06 344.58Z" fill="#688E40"/>
<path d="M636.14 587.95C635.971 587.78 635.873 587.552 635.867 587.313C635.862 587.075 635.949 586.844 636.11 586.67C636.87 585.85 637.753 584.967 638.76 584.02C642.08 580.893 649.65 574.457 661.47 564.71C675.51 553.13 691.92 538.75 708.18 525.4C708.584 525.07 709.089 524.888 709.61 524.886C710.131 524.885 710.636 525.063 711.04 525.39C717.35 530.52 723.26 536.1 729.45 541.41C744.096 553.99 758.18 566.04 771.7 577.56C796.673 598.84 814.363 613.81 824.77 622.47C827.29 624.57 825.6 632.77 824.91 635.66C822.23 646.907 818.27 656.383 813.03 664.09C804.77 676.24 792.59 688.22 779.34 695.07C776.126 696.73 772.696 697.883 769.05 698.53C763.75 699.47 761.87 698.69 757.55 695.08C728.903 671.133 701.823 647.777 676.31 625.01C669.35 618.8 661.65 610.55 655.26 605.23C648.413 599.53 642.04 593.77 636.14 587.95Z" fill="#266D6F"/>
<path d="M481.35 716.32C482.896 716.293 484.196 716.357 485.25 716.51C491.623 717.45 496.703 718.123 500.49 718.53C501.99 718.69 503.986 719.06 506.48 719.64C511.84 720.89 516.96 721.35 518.44 726.82C519.093 729.207 519.316 731.677 519.11 734.23C518.003 748.063 516.993 757.117 516.08 761.39C514.52 768.65 513.49 774.127 512.99 777.82C512.51 781.37 511.28 784.82 510.6 788.51C510.566 788.7 510.466 788.872 510.315 788.995C510.165 789.118 509.975 789.183 509.78 789.18H509.75C509.664 789.179 509.579 789.16 509.501 789.126C509.422 789.091 509.352 789.041 509.293 788.978C509.234 788.916 509.188 788.842 509.159 788.762C509.129 788.681 509.116 788.596 509.12 788.51C509.46 778.77 509.52 772.517 509.3 769.75C508.306 757.403 507.45 747.497 506.73 740.03C506.08 733.31 502.42 729.72 496.46 726C492.486 723.513 487.363 720.67 481.09 717.47C480.971 717.408 480.875 717.308 480.819 717.186C480.763 717.063 480.748 716.926 480.778 716.795C480.807 716.664 480.88 716.546 480.983 716.46C481.086 716.374 481.215 716.325 481.35 716.32Z" fill="#283450"/>
<path d="M528.17 844.2C528.141 844.272 528.087 844.33 528.018 844.364C527.95 844.398 527.87 844.406 527.795 844.385C527.72 844.364 527.654 844.317 527.609 844.252C527.564 844.187 527.543 844.108 527.55 844.03C528.89 832.09 529.55 818.53 531.2 806.04C532.5 796.22 533.59 787.33 534.47 779.37C535.23 772.51 536.11 768.05 537.4 760.16C538.96 750.68 539.45 737.9 541.57 729.94C541.615 729.763 541.719 729.606 541.864 729.496C542.009 729.385 542.188 729.327 542.37 729.33C545.257 729.357 548.107 729.687 550.92 730.32C552.36 730.647 552.877 731.623 552.47 733.25C551.36 737.63 550.8 742.3 549.72 746.57C547.134 756.877 545.684 762.993 545.37 764.92C543.677 775.36 541.59 786.127 539.11 797.22C536.83 807.4 534.69 820.22 532.7 829.73C531.594 835.023 530.084 839.847 528.17 844.2Z" fill="#283450"/>
<path d="M124.431 73.0002C126 71 189.431 99.0002 186.931 106C184.431 113 171.431 127.5 164.931 127.5C158.431 127.5 122.862 75.0003 124.431 73.0002Z" fill="#747474"/>
</svg>
